<?xml version="1.0" encoding="UTF-8" standalone="no"?>
<!DOCTYPE svg PUBLIC "-//W3C//DTD SVG 1.1//EN"
 "http://www.w3.org/Graphics/SVG/1.1/DTD/svg11.dtd">
<!-- Generated by graphviz version 2.40.1 (20161225.0304)
 -->
<!-- Title: state transitions Pages: 1 -->
<svg width="248pt" height="176pt"
 viewBox="0.00 0.00 248.00 176.00" xmlns="http://www.w3.org/2000/svg" xmlns:xlink="http://www.w3.org/1999/xlink">
<g id="graph0" class="graph" transform="scale(1 1) rotate(0) translate(4 172)">
<title>state transitions</title>
<polygon fill="#ffffff" stroke="transparent" points="-4,4 -4,-172 244,-172 244,4 -4,4"/>
<!-- initial -->
<g id="node1" class="node">
<title>initial</title>
<ellipse fill="#000000" stroke="#000000" stroke-width="2" cx="89" cy="-162.5" rx="5.5" ry="5.5"/>
</g>
<!-- nav_and_explore -->
<g id="node2" class="node">
<title>nav_and_explore</title>
<polygon fill="transparent" stroke="transparent" stroke-width="2" points="178,-129 0,-129 0,-93 178,-93 178,-129"/>
<text text-anchor="start" x="10.988" y="-107.2" font-family="Helvetica,sans-Serif" font-size="12.00" fill="#000000">NAVIGATE_AND_EXPLORE</text>
<path fill="none" stroke="#000000" stroke-width="2" d="M12.3333,-94C12.3333,-94 165.6667,-94 165.6667,-94 171.3333,-94 177,-99.6667 177,-105.3333 177,-105.3333 177,-116.6667 177,-116.6667 177,-122.3333 171.3333,-128 165.6667,-128 165.6667,-128 12.3333,-128 12.3333,-128 6.6667,-128 1,-122.3333 1,-116.6667 1,-116.6667 1,-105.3333 1,-105.3333 1,-99.6667 6.6667,-94 12.3333,-94"/>
</g>
<!-- initial&#45;&gt;nav_and_explore -->
<g id="edge1" class="edge">
<title>initial&#45;&gt;nav_and_explore</title>
<path fill="none" stroke="#000000" d="M89,-156.9886C89,-152.6293 89,-146.1793 89,-139.4801"/>
<polygon fill="#000000" stroke="#000000" points="92.5001,-139.0122 89,-129.0122 85.5001,-139.0122 92.5001,-139.0122"/>
<text text-anchor="middle" x="90.3895" y="-140" font-family="Helvetica,sans-Serif" font-size="10.00" fill="#000000"> </text>
</g>
<!-- i_note_tr_nav_and_explore_handle_cube_tfs_3 -->
<!-- nav_and_explore&#45;&gt;i_note_tr_nav_and_explore_handle_cube_tfs_3 -->
<g id="edge3" class="edge">
<title>nav_and_explore&#45;&gt;i_note_tr_nav_and_explore_handle_cube_tfs_3</title>
<path fill="none" stroke="#000000" d="M111.5178,-92.8975C124.3261,-82.6006 138.152,-71.4856 139.8302,-70.1365"/>
</g>
<!-- handle_cube_tfs -->
<g id="node3" class="node">
<title>handle_cube_tfs</title>
<polygon fill="transparent" stroke="transparent" stroke-width="2" points="164,-36 24,-36 24,0 164,0 164,-36"/>
<text text-anchor="start" x="34.999" y="-14.2" font-family="Helvetica,sans-Serif" font-size="12.00" fill="#000000">HANDLE_CUBE_TFS</text>
<path fill="none" stroke="#000000" stroke-width="2" d="M36.3333,-1C36.3333,-1 151.6667,-1 151.6667,-1 157.3333,-1 163,-6.6667 163,-12.3333 163,-12.3333 163,-23.6667 163,-23.6667 163,-29.3333 157.3333,-35 151.6667,-35 151.6667,-35 36.3333,-35 36.3333,-35 30.6667,-35 25,-29.3333 25,-23.6667 25,-23.6667 25,-12.3333 25,-12.3333 25,-6.6667 30.6667,-1 36.3333,-1"/>
</g>
<!-- handle_cube_tfs&#45;&gt;nav_and_explore -->
<g id="edge2" class="edge">
<title>handle_cube_tfs&#45;&gt;nav_and_explore</title>
<path fill="none" stroke="#000000" d="M90.1826,-36.2652C88.613,-44.6703 86.9836,-54.7987 86.21,-64 85.7632,-69.3146 85.9979,-70.6709 86.21,-76 86.2986,-78.227 86.4188,-80.5317 86.5598,-82.8467"/>
<polygon fill="#000000" stroke="#000000" points="83.0708,-83.1267 87.2772,-92.8507 90.0529,-82.626 83.0708,-83.1267"/>
<text text-anchor="start" x="87" y="-67" font-family="Helvetica,sans-Serif" font-size="10.00" fill="#000000">finished &#160;&#160;</text>
</g>
<!-- i_note_tr_nav_and_explore_handle_cube_tfs_3&#45;&gt;handle_cube_tfs -->
<g id="edge4" class="edge">
<title>i_note_tr_nav_and_explore_handle_cube_tfs_3&#45;&gt;handle_cube_tfs</title>
<path fill="none" stroke="#000000" d="M139.868,-69.8508C138.5501,-68.361 127.5757,-55.9551 116.693,-43.6529"/>
<polygon fill="#000000" stroke="#000000" points="119.2632,-41.2759 110.0159,-36.105 114.0202,-45.914 119.2632,-41.2759"/>
<text text-anchor="start" x="126" y="-47" font-family="Helvetica,sans-Serif" font-size="10.00" fill="#000000">timeout &#160;&#160;</text>
</g>
<!-- note_tr_nav_and_explore_handle_cube_tfs_3 -->
<g id="node5" class="node">
<title>note_tr_nav_and_explore_handle_cube_tfs_3</title>
<polygon fill="#ffffcc" stroke="#000000" points="234,-36 186,-36 186,0 240,0 240,-30 234,-36"/>
<polyline fill="none" stroke="#000000" points="234,-36 234,-30 "/>
<polyline fill="none" stroke="#000000" points="240,-30 234,-30 "/>
<text text-anchor="start" x="194" y="-15" font-family="Helvetica,sans-Serif" font-size="10.00" fill="#000000">10 hz</text>
</g>
<!-- i_note_tr_nav_and_explore_handle_cube_tfs_3&#45;&gt;note_tr_nav_and_explore_handle_cube_tfs_3 -->
<g id="edge5" class="edge">
<title>i_note_tr_nav_and_explore_handle_cube_tfs_3&#45;&gt;note_tr_nav_and_explore_handle_cube_tfs_3</title>
<path fill="none" stroke="#000000" stroke-dasharray="5,2" d="M140.0549,-69.984C141.1825,-69.6537 159.4201,-64.2406 172,-56 180.6055,-50.3629 189.1139,-42.879 196.1303,-36.0441"/>
</g>
</g>
</svg>
