<?xml version="1.0" encoding="UTF-8" standalone="no"?>
<!DOCTYPE svg PUBLIC "-//W3C//DTD SVG 1.1//EN"
 "http://www.w3.org/Graphics/SVG/1.1/DTD/svg11.dtd">
<!-- Generated by graphviz version 2.40.1 (20161225.0304)
 -->
<!-- Title: state transitions Pages: 1 -->
<svg width="320pt" height="322pt"
 viewBox="0.00 0.00 319.52 322.00" xmlns="http://www.w3.org/2000/svg" xmlns:xlink="http://www.w3.org/1999/xlink">
<g id="graph0" class="graph" transform="scale(1 1) rotate(0) translate(4 318)">
<title>state transitions</title>
<polygon fill="#ffffff" stroke="transparent" points="-4,4 -4,-318 315.5208,-318 315.5208,4 -4,4"/>
<!-- initial -->
<g id="node1" class="node">
<title>initial</title>
<ellipse fill="#000000" stroke="#000000" stroke-width="2" cx="228.9608" cy="-308.5" rx="5.5" ry="5.5"/>
</g>
<!-- setup -->
<g id="node2" class="node">
<title>setup</title>
<polygon fill="transparent" stroke="transparent" stroke-width="2" points="283.9608,-275 173.9608,-275 173.9608,-239 283.9608,-239 283.9608,-275"/>
<text text-anchor="start" x="184.9592" y="-253.2" font-family="Helvetica,sans-Serif" font-size="12.00" fill="#000000">INITIALIZATION</text>
<path fill="none" stroke="#000000" stroke-width="2" d="M186.2941,-240C186.2941,-240 271.6275,-240 271.6275,-240 277.2941,-240 282.9608,-245.6667 282.9608,-251.3333 282.9608,-251.3333 282.9608,-262.6667 282.9608,-262.6667 282.9608,-268.3333 277.2941,-274 271.6275,-274 271.6275,-274 186.2941,-274 186.2941,-274 180.6275,-274 174.9608,-268.3333 174.9608,-262.6667 174.9608,-262.6667 174.9608,-251.3333 174.9608,-251.3333 174.9608,-245.6667 180.6275,-240 186.2941,-240"/>
</g>
<!-- initial&#45;&gt;setup -->
<g id="edge1" class="edge">
<title>initial&#45;&gt;setup</title>
<path fill="none" stroke="#000000" d="M228.9608,-302.9886C228.9608,-298.6293 228.9608,-292.1793 228.9608,-285.4801"/>
<polygon fill="#000000" stroke="#000000" points="232.4609,-285.0122 228.9608,-275.0122 225.4609,-285.0122 232.4609,-285.0122"/>
<text text-anchor="middle" x="230.3503" y="-286" font-family="Helvetica,sans-Serif" font-size="10.00" fill="#000000"> </text>
</g>
<!-- yaw_rotation_scan -->
<g id="node3" class="node">
<title>yaw_rotation_scan</title>
<polygon fill="transparent" stroke="transparent" stroke-width="2" points="236.4608,-211 79.4608,-211 79.4608,-175 236.4608,-175 236.4608,-211"/>
<text text-anchor="start" x="90.461" y="-189.2" font-family="Helvetica,sans-Serif" font-size="12.00" fill="#000000">YAW_ROTATION_SCAN</text>
<path fill="none" stroke="#000000" stroke-width="2" d="M91.7941,-176C91.7941,-176 224.1275,-176 224.1275,-176 229.7941,-176 235.4608,-181.6667 235.4608,-187.3333 235.4608,-187.3333 235.4608,-198.6667 235.4608,-198.6667 235.4608,-204.3333 229.7941,-210 224.1275,-210 224.1275,-210 91.7941,-210 91.7941,-210 86.1275,-210 80.4608,-204.3333 80.4608,-198.6667 80.4608,-198.6667 80.4608,-187.3333 80.4608,-187.3333 80.4608,-181.6667 86.1275,-176 91.7941,-176"/>
</g>
<!-- setup&#45;&gt;yaw_rotation_scan -->
<g id="edge2" class="edge">
<title>setup&#45;&gt;yaw_rotation_scan</title>
<path fill="none" stroke="#000000" d="M208.805,-238.8314C201.6714,-232.4011 193.5143,-225.0482 185.8531,-218.1424"/>
<polygon fill="#000000" stroke="#000000" points="188.1848,-215.5321 178.4136,-211.4363 183.4979,-220.7315 188.1848,-215.5321"/>
<text text-anchor="start" x="198.9608" y="-222" font-family="Helvetica,sans-Serif" font-size="10.00" fill="#000000">success &#160;&#160;</text>
</g>
<!-- finish -->
<g id="node6" class="node">
<title>finish</title>
<polygon fill="transparent" stroke="transparent" stroke-width="2" points="274.4608,-83 213.4608,-83 213.4608,-47 274.4608,-47 274.4608,-83"/>
<text text-anchor="start" x="224.7964" y="-61.2" font-family="Helvetica,sans-Serif" font-size="12.00" fill="#000000">FINISH</text>
<path fill="none" stroke="#000000" stroke-width="2" d="M225.7941,-48C225.7941,-48 262.1275,-48 262.1275,-48 267.7941,-48 273.4608,-53.6667 273.4608,-59.3333 273.4608,-59.3333 273.4608,-70.6667 273.4608,-70.6667 273.4608,-76.3333 267.7941,-82 262.1275,-82 262.1275,-82 225.7941,-82 225.7941,-82 220.1275,-82 214.4608,-76.3333 214.4608,-70.6667 214.4608,-70.6667 214.4608,-59.3333 214.4608,-59.3333 214.4608,-53.6667 220.1275,-48 225.7941,-48"/>
</g>
<!-- setup&#45;&gt;finish -->
<g id="edge3" class="edge">
<title>setup&#45;&gt;finish</title>
<path fill="none" stroke="#000000" d="M243.4342,-238.7277C245.091,-236.21 246.652,-233.5959 247.9608,-231 274.6203,-178.1225 277.295,-161.7197 284.9608,-103 285.6512,-97.7115 287.5309,-95.6732 284.9608,-91 284.0951,-89.426 283.0894,-87.9339 281.973,-86.5209"/>
<polygon fill="#000000" stroke="#000000" points="284.1664,-83.7701 274.5725,-79.2748 279.2691,-88.7718 284.1664,-83.7701"/>
<text text-anchor="start" x="275.9608" y="-158" font-family="Helvetica,sans-Serif" font-size="10.00" fill="#000000">failure &#160;&#160;</text>
</g>
<!-- explore -->
<g id="node4" class="node">
<title>explore</title>
<polygon fill="transparent" stroke="transparent" stroke-width="2" points="168.9608,-147 90.9608,-147 90.9608,-111 168.9608,-111 168.9608,-147"/>
<text text-anchor="start" x="101.621" y="-125.2" font-family="Helvetica,sans-Serif" font-size="12.00" fill="#000000">EXPLORE</text>
<path fill="none" stroke="#000000" stroke-width="2" d="M103.2941,-112C103.2941,-112 156.6275,-112 156.6275,-112 162.2941,-112 167.9608,-117.6667 167.9608,-123.3333 167.9608,-123.3333 167.9608,-134.6667 167.9608,-134.6667 167.9608,-140.3333 162.2941,-146 156.6275,-146 156.6275,-146 103.2941,-146 103.2941,-146 97.6275,-146 91.9608,-140.3333 91.9608,-134.6667 91.9608,-134.6667 91.9608,-123.3333 91.9608,-123.3333 91.9608,-117.6667 97.6275,-112 103.2941,-112"/>
</g>
<!-- yaw_rotation_scan&#45;&gt;explore -->
<g id="edge4" class="edge">
<title>yaw_rotation_scan&#45;&gt;explore</title>
<path fill="none" stroke="#000000" d="M98.9951,-174.894C93.9531,-172.3688 90.0517,-169.708 88.1708,-167 85.2601,-162.8094 85.2588,-158.7526 87.1047,-154.9481"/>
<polygon fill="#000000" stroke="#000000" points="89.9608,-156.9883 93.6834,-147.069 84.5875,-152.5019 89.9608,-156.9883"/>
<text text-anchor="start" x="88.9608" y="-158" font-family="Helvetica,sans-Serif" font-size="10.00" fill="#000000">finished &#160;&#160;</text>
</g>
<!-- explore&#45;&gt;yaw_rotation_scan -->
<g id="edge5" class="edge">
<title>explore&#45;&gt;yaw_rotation_scan</title>
<path fill="none" stroke="#000000" d="M138.0267,-147.4363C140.498,-153.0849 143.2719,-159.4254 145.9471,-165.5402"/>
<polygon fill="#000000" stroke="#000000" points="142.7972,-167.0727 150.012,-174.8314 149.2103,-164.2669 142.7972,-167.0727"/>
<text text-anchor="start" x="146.9608" y="-158" font-family="Helvetica,sans-Serif" font-size="10.00" fill="#000000">no_cube_visits_pending &#160;&#160;</text>
</g>
<!-- visit_good_cube -->
<g id="node5" class="node">
<title>visit_good_cube</title>
<polygon fill="transparent" stroke="transparent" stroke-width="2" points="153.4608,-83 18.4608,-83 18.4608,-47 153.4608,-47 153.4608,-83"/>
<text text-anchor="start" x="29.7878" y="-61.2" font-family="Helvetica,sans-Serif" font-size="12.00" fill="#000000">VISIT_GOOD_CUBE</text>
<path fill="none" stroke="#000000" stroke-width="2" d="M30.7941,-48C30.7941,-48 141.1275,-48 141.1275,-48 146.7941,-48 152.4608,-53.6667 152.4608,-59.3333 152.4608,-59.3333 152.4608,-70.6667 152.4608,-70.6667 152.4608,-76.3333 146.7941,-82 141.1275,-82 141.1275,-82 30.7941,-82 30.7941,-82 25.1275,-82 19.4608,-76.3333 19.4608,-70.6667 19.4608,-70.6667 19.4608,-59.3333 19.4608,-59.3333 19.4608,-53.6667 25.1275,-48 30.7941,-48"/>
</g>
<!-- explore&#45;&gt;visit_good_cube -->
<g id="edge6" class="edge">
<title>explore&#45;&gt;visit_good_cube</title>
<path fill="none" stroke="#000000" d="M90.7695,-126.2217C57.9767,-122.9847 14.8594,-116.2831 4.0388,-103 -3.2369,-94.0686 .4126,-87.1337 9.3152,-81.7851"/>
<polygon fill="#000000" stroke="#000000" points="10.8251,-84.9427 18.3484,-77.4828 7.8151,-78.6229 10.8251,-84.9427"/>
<text text-anchor="start" x="4.9608" y="-94" font-family="Helvetica,sans-Serif" font-size="10.00" fill="#000000">cube_visits_pending &#160;&#160;</text>
</g>
<!-- explore&#45;&gt;finish -->
<g id="edge8" class="edge">
<title>explore&#45;&gt;finish</title>
<path fill="none" stroke="#000000" d="M162.3237,-110.8314C175.3914,-103.4951 190.5983,-94.9579 204.3211,-87.2538"/>
<polygon fill="#000000" stroke="#000000" points="206.0808,-90.2799 213.0873,-82.3325 202.654,-84.176 206.0808,-90.2799"/>
<text text-anchor="start" x="196.9608" y="-94" font-family="Helvetica,sans-Serif" font-size="10.00" fill="#000000">all_cubes_visited &#160;&#160;</text>
</g>
<!-- visit_good_cube&#45;&gt;explore -->
<g id="edge7" class="edge">
<title>visit_good_cube&#45;&gt;explore</title>
<path fill="none" stroke="#000000" d="M98.562,-83.1746C100.376,-85.7987 102.2178,-88.4674 103.9608,-91 106.5285,-94.7307 109.2331,-98.6713 111.8883,-102.5462"/>
<polygon fill="#000000" stroke="#000000" points="109.0129,-104.542 117.5496,-110.817 114.7893,-100.588 109.0129,-104.542"/>
<text text-anchor="start" x="111.9608" y="-94" font-family="Helvetica,sans-Serif" font-size="10.00" fill="#000000">finished &#160;&#160;</text>
</g>
<!-- final -->
<g id="node7" class="node">
<title>final</title>
<ellipse fill="#000000" stroke="#000000" stroke-width="2" cx="243.9608" cy="-9.5" rx="5.5" ry="5.5"/>
<ellipse fill="none" stroke="#000000" stroke-width="2" cx="243.9608" cy="-9.5" rx="9.5" ry="9.5"/>
</g>
<!-- finish&#45;&gt;final -->
<g id="edge9" class="edge">
<title>finish&#45;&gt;final</title>
<path fill="none" stroke="#000000" d="M243.9608,-46.8272C243.9608,-41.202 243.9608,-34.9783 243.9608,-29.2515"/>
<polygon fill="#000000" stroke="#000000" points="247.4609,-29.1396 243.9608,-19.1396 240.4609,-29.1397 247.4609,-29.1396"/>
<text text-anchor="middle" x="245.3503" y="-30" font-family="Helvetica,sans-Serif" font-size="10.00" fill="#000000"> </text>
</g>
</g>
</svg>
