<?xml version="1.0" encoding="UTF-8" standalone="no"?>
<!DOCTYPE svg PUBLIC "-//W3C//DTD SVG 1.1//EN"
 "http://www.w3.org/Graphics/SVG/1.1/DTD/svg11.dtd">
<!-- Generated by graphviz version 2.40.1 (20161225.0304)
 -->
<!-- Title: state transitions Pages: 1 -->
<svg width="626pt" height="386pt"
 viewBox="0.00 0.00 625.74 386.00" xmlns="http://www.w3.org/2000/svg" xmlns:xlink="http://www.w3.org/1999/xlink">
<g id="graph0" class="graph" transform="scale(1 1) rotate(0) translate(4 382)">
<title>state transitions</title>
<polygon fill="#ffffff" stroke="transparent" points="-4,4 -4,-382 621.739,-382 621.739,4 -4,4"/>
<!-- initial -->
<g id="node1" class="node">
<title>initial</title>
<ellipse fill="#000000" stroke="#000000" stroke-width="2" cx="489.179" cy="-372.5" rx="5.5" ry="5.5"/>
</g>
<!-- setup -->
<g id="node2" class="node">
<title>setup</title>
<polygon fill="transparent" stroke="transparent" stroke-width="2" points="544.179,-339 434.179,-339 434.179,-303 544.179,-303 544.179,-339"/>
<text text-anchor="start" x="445.1774" y="-317.2" font-family="Helvetica,sans-Serif" font-size="12.00" fill="#000000">INITIALIZATION</text>
<path fill="none" stroke="#000000" stroke-width="2" d="M446.5123,-304C446.5123,-304 531.8457,-304 531.8457,-304 537.5123,-304 543.179,-309.6667 543.179,-315.3333 543.179,-315.3333 543.179,-326.6667 543.179,-326.6667 543.179,-332.3333 537.5123,-338 531.8457,-338 531.8457,-338 446.5123,-338 446.5123,-338 440.8457,-338 435.179,-332.3333 435.179,-326.6667 435.179,-326.6667 435.179,-315.3333 435.179,-315.3333 435.179,-309.6667 440.8457,-304 446.5123,-304"/>
</g>
<!-- initial&#45;&gt;setup -->
<g id="edge2" class="edge">
<title>initial&#45;&gt;setup</title>
<path fill="none" stroke="#000000" d="M489.179,-366.9886C489.179,-362.6293 489.179,-356.1793 489.179,-349.4801"/>
<polygon fill="#000000" stroke="#000000" points="492.6791,-349.0122 489.179,-339.0122 485.6791,-349.0122 492.6791,-349.0122"/>
<text text-anchor="middle" x="490.5685" y="-350" font-family="Helvetica,sans-Serif" font-size="10.00" fill="#000000"> </text>
</g>
<!-- yaw_rotation_scan -->
<g id="node3" class="node">
<title>yaw_rotation_scan</title>
<polygon fill="transparent" stroke="transparent" stroke-width="2" points="474.679,-275 317.679,-275 317.679,-239 474.679,-239 474.679,-275"/>
<text text-anchor="start" x="328.6792" y="-253.2" font-family="Helvetica,sans-Serif" font-size="12.00" fill="#000000">YAW_ROTATION_SCAN</text>
<path fill="none" stroke="#000000" stroke-width="2" d="M330.0123,-240C330.0123,-240 462.3457,-240 462.3457,-240 468.0123,-240 473.679,-245.6667 473.679,-251.3333 473.679,-251.3333 473.679,-262.6667 473.679,-262.6667 473.679,-268.3333 468.0123,-274 462.3457,-274 462.3457,-274 330.0123,-274 330.0123,-274 324.3457,-274 318.679,-268.3333 318.679,-262.6667 318.679,-262.6667 318.679,-251.3333 318.679,-251.3333 318.679,-245.6667 324.3457,-240 330.0123,-240"/>
</g>
<!-- setup&#45;&gt;yaw_rotation_scan -->
<g id="edge3" class="edge">
<title>setup&#45;&gt;yaw_rotation_scan</title>
<path fill="none" stroke="#000000" d="M462.7777,-302.8314C452.9605,-296.0754 441.6633,-288.301 431.1945,-281.0967"/>
<polygon fill="#000000" stroke="#000000" points="432.8684,-277.9999 422.6463,-275.2141 428.9,-283.7664 432.8684,-277.9999"/>
<text text-anchor="start" x="450.179" y="-286" font-family="Helvetica,sans-Serif" font-size="10.00" fill="#000000">success &#160;&#160;</text>
</g>
<!-- finish -->
<g id="node6" class="node">
<title>finish</title>
<polygon fill="transparent" stroke="transparent" stroke-width="2" points="397.679,-83 336.679,-83 336.679,-47 397.679,-47 397.679,-83"/>
<text text-anchor="start" x="348.0146" y="-61.2" font-family="Helvetica,sans-Serif" font-size="12.00" fill="#000000">FINISH</text>
<path fill="none" stroke="#000000" stroke-width="2" d="M349.0123,-48C349.0123,-48 385.3457,-48 385.3457,-48 391.0123,-48 396.679,-53.6667 396.679,-59.3333 396.679,-59.3333 396.679,-70.6667 396.679,-70.6667 396.679,-76.3333 391.0123,-82 385.3457,-82 385.3457,-82 349.0123,-82 349.0123,-82 343.3457,-82 337.679,-76.3333 337.679,-70.6667 337.679,-70.6667 337.679,-59.3333 337.679,-59.3333 337.679,-53.6667 343.3457,-48 349.0123,-48"/>
</g>
<!-- setup&#45;&gt;finish -->
<g id="edge4" class="edge">
<title>setup&#45;&gt;finish</title>
<path fill="none" stroke="#000000" d="M544.3523,-303.8681C564.3782,-293.9455 582.179,-278.9516 582.179,-257 582.179,-257 582.179,-257 582.179,-129 582.179,-93.1051 470.7037,-75.72 408.2915,-68.7994"/>
<polygon fill="#000000" stroke="#000000" points="408.2977,-65.2804 397.9833,-67.7018 407.5564,-72.241 408.2977,-65.2804"/>
<text text-anchor="start" x="582.179" y="-190" font-family="Helvetica,sans-Serif" font-size="10.00" fill="#000000">failure &#160;&#160;</text>
</g>
<!-- visit_good_cube -->
<g id="node5" class="node">
<title>visit_good_cube</title>
<polygon fill="transparent" stroke="transparent" stroke-width="2" points="208.679,-211 73.679,-211 73.679,-175 208.679,-175 208.679,-211"/>
<text text-anchor="start" x="85.006" y="-189.2" font-family="Helvetica,sans-Serif" font-size="12.00" fill="#000000">VISIT_GOOD_CUBE</text>
<path fill="none" stroke="#000000" stroke-width="2" d="M86.0123,-176C86.0123,-176 196.3457,-176 196.3457,-176 202.0123,-176 207.679,-181.6667 207.679,-187.3333 207.679,-187.3333 207.679,-198.6667 207.679,-198.6667 207.679,-204.3333 202.0123,-210 196.3457,-210 196.3457,-210 86.0123,-210 86.0123,-210 80.3457,-210 74.679,-204.3333 74.679,-198.6667 74.679,-198.6667 74.679,-187.3333 74.679,-187.3333 74.679,-181.6667 80.3457,-176 86.0123,-176"/>
</g>
<!-- yaw_rotation_scan&#45;&gt;visit_good_cube -->
<g id="edge5" class="edge">
<title>yaw_rotation_scan&#45;&gt;visit_good_cube</title>
<path fill="none" stroke="#000000" d="M324.1287,-238.9168C291.2874,-230.6743 252.3504,-220.9018 218.8566,-212.4956"/>
<polygon fill="#000000" stroke="#000000" points="219.6593,-209.0885 209.1081,-210.0489 217.9552,-215.878 219.6593,-209.0885"/>
<text text-anchor="start" x="291.179" y="-222" font-family="Helvetica,sans-Serif" font-size="10.00" fill="#000000">finished &#160;&#160;</text>
</g>
<!-- explore -->
<g id="node4" class="node">
<title>explore</title>
<polygon fill="transparent" stroke="transparent" stroke-width="2" points="314.179,-147 236.179,-147 236.179,-111 314.179,-111 314.179,-147"/>
<text text-anchor="start" x="246.8392" y="-125.2" font-family="Helvetica,sans-Serif" font-size="12.00" fill="#000000">EXPLORE</text>
<path fill="none" stroke="#000000" stroke-width="2" d="M248.5123,-112C248.5123,-112 301.8457,-112 301.8457,-112 307.5123,-112 313.179,-117.6667 313.179,-123.3333 313.179,-123.3333 313.179,-134.6667 313.179,-134.6667 313.179,-140.3333 307.5123,-146 301.8457,-146 301.8457,-146 248.5123,-146 248.5123,-146 242.8457,-146 237.179,-140.3333 237.179,-134.6667 237.179,-134.6667 237.179,-123.3333 237.179,-123.3333 237.179,-117.6667 242.8457,-112 248.5123,-112"/>
</g>
<!-- explore&#45;&gt;yaw_rotation_scan -->
<g id="edge6" class="edge">
<title>explore&#45;&gt;yaw_rotation_scan</title>
<path fill="none" stroke="#000000" d="M314.1928,-142.3121C331.094,-149.7173 349.9875,-160.4325 363.179,-175 376.8272,-190.0718 385.1876,-211.5087 390.0778,-228.6842"/>
<polygon fill="#000000" stroke="#000000" points="386.7867,-229.9353 392.6904,-238.7328 393.5614,-228.1738 386.7867,-229.9353"/>
<text text-anchor="start" x="383.179" y="-190" font-family="Helvetica,sans-Serif" font-size="10.00" fill="#000000">no_target_cube_visit_pending &#160;&#160;</text>
</g>
<!-- explore&#45;&gt;visit_good_cube -->
<g id="edge7" class="edge">
<title>explore&#45;&gt;visit_good_cube</title>
<path fill="none" stroke="#000000" d="M236.0663,-141.8593C229.1621,-143.8055 222.0011,-145.6204 215.179,-147 198.9572,-150.2806 152.1904,-142.6847 141.134,-155 138.6797,-157.7338 137.2953,-161.0763 136.6314,-164.6334"/>
<polygon fill="#000000" stroke="#000000" points="133.126,-164.816 136.3786,-174.8992 140.1239,-164.9884 133.126,-164.816"/>
<text text-anchor="start" x="140.179" y="-158" font-family="Helvetica,sans-Serif" font-size="10.00" fill="#000000">target_cube_visit_pending &#160;&#160;</text>
</g>
<!-- explore&#45;&gt;finish -->
<g id="edge8" class="edge">
<title>explore&#45;&gt;finish</title>
<path fill="none" stroke="#000000" d="M239.6022,-110.6381C232.6037,-104.6933 228.949,-97.8571 234.592,-91 246.0739,-77.0479 291.7552,-70.4722 326.3147,-67.4477"/>
<polygon fill="#000000" stroke="#000000" points="326.9452,-70.9085 336.6328,-66.6189 326.3846,-63.9309 326.9452,-70.9085"/>
<text text-anchor="start" x="234.179" y="-94" font-family="Helvetica,sans-Serif" font-size="10.00" fill="#000000">all_target_cubes_visited &#160;&#160;</text>
</g>
<!-- visit_good_cube&#45;&gt;explore -->
<g id="edge9" class="edge">
<title>visit_good_cube&#45;&gt;explore</title>
<path fill="none" stroke="#000000" d="M208.8874,-185.735C233.9875,-181.6887 258.475,-175.6692 267.179,-167 269.9196,-164.2703 271.8337,-160.8554 273.1539,-157.1996"/>
<polygon fill="#000000" stroke="#000000" points="276.6084,-157.793 275.4219,-147.2648 269.784,-156.235 276.6084,-157.793"/>
<text text-anchor="start" x="273.179" y="-158" font-family="Helvetica,sans-Serif" font-size="10.00" fill="#000000">explore &#160;&#160;</text>
</g>
<!-- visit_good_cube&#45;&gt;visit_good_cube -->
<g id="edge11" class="edge">
<title>visit_good_cube&#45;&gt;visit_good_cube</title>
<path fill="none" stroke="#000000" d="M208.7004,-198.7129C221.5746,-198.0293 230.679,-196.125 230.679,-193 230.679,-190.8027 226.1779,-189.209 219.0301,-188.2187"/>
<polygon fill="#000000" stroke="#000000" points="218.9744,-184.6995 208.7004,-187.2871 218.3456,-191.6713 218.9744,-184.6995"/>
<text text-anchor="start" x="230.679" y="-190" font-family="Helvetica,sans-Serif" font-size="10.00" fill="#000000">target_cube_visit_pending &#160;&#160;</text>
</g>
<!-- visit_good_cube&#45;&gt;finish -->
<g id="edge10" class="edge">
<title>visit_good_cube&#45;&gt;finish</title>
<path fill="none" stroke="#000000" d="M209.1052,-189.5322C251.7212,-186.1486 301.7805,-179.5817 319.179,-167 343.3546,-149.5174 355.7586,-116.6876 361.8379,-92.9874"/>
<polygon fill="#000000" stroke="#000000" points="365.2705,-93.6791 364.139,-83.1449 358.4543,-92.0855 365.2705,-93.6791"/>
<text text-anchor="start" x="355.179" y="-126" font-family="Helvetica,sans-Serif" font-size="10.00" fill="#000000">all_target_cubes_visited &#160;&#160;</text>
</g>
<!-- note_visit_good_cube -->
<g id="node8" class="node">
<title>note_visit_good_cube</title>
<polygon fill="#ffffcc" stroke="#000000" points="198.5373,-147 -.1793,-147 -.1793,-111 204.5373,-111 204.5373,-141 198.5373,-147"/>
<polyline fill="none" stroke="#000000" points="198.5373,-147 198.5373,-141 "/>
<polyline fill="none" stroke="#000000" points="204.5373,-141 198.5373,-141 "/>
<text text-anchor="start" x="8" y="-126" font-family="Helvetica,sans-Serif" font-size="10.00" fill="#000000">If there&#39;s no cubes yet, it will try to explore.</text>
</g>
<!-- visit_good_cube&#45;&gt;note_visit_good_cube -->
<g id="edge1" class="edge">
<title>visit_good_cube&#45;&gt;note_visit_good_cube</title>
<path fill="none" stroke="#000000" stroke-dasharray="5,2" d="M123.8186,-174.8362C121.7869,-172.3007 119.8473,-169.6528 118.179,-167 114.3683,-160.9405 111.0933,-153.8166 108.5169,-147.3845"/>
</g>
<!-- final -->
<g id="node7" class="node">
<title>final</title>
<ellipse fill="#000000" stroke="#000000" stroke-width="2" cx="367.179" cy="-9.5" rx="5.5" ry="5.5"/>
<ellipse fill="none" stroke="#000000" stroke-width="2" cx="367.179" cy="-9.5" rx="9.5" ry="9.5"/>
</g>
<!-- finish&#45;&gt;final -->
<g id="edge12" class="edge">
<title>finish&#45;&gt;final</title>
<path fill="none" stroke="#000000" d="M367.179,-46.8272C367.179,-41.202 367.179,-34.9783 367.179,-29.2515"/>
<polygon fill="#000000" stroke="#000000" points="370.6791,-29.1396 367.179,-19.1396 363.6791,-29.1397 370.6791,-29.1396"/>
<text text-anchor="middle" x="368.5685" y="-30" font-family="Helvetica,sans-Serif" font-size="10.00" fill="#000000"> </text>
</g>
</g>
</svg>